<?xml version="1.0" standalone="no"?>
<!DOCTYPE svg PUBLIC "-//W3C//DTD SVG 20010904//EN"
 "http://www.w3.org/TR/2001/REC-SVG-20010904/DTD/svg10.dtd">
<svg version="1.0" xmlns="http://www.w3.org/2000/svg"
 width="1360.000000pt" height="1360.000000pt" viewBox="0 0 1360.000000 1360.000000"
 preserveAspectRatio="xMidYMid meet">
<metadata>
Created by potrace 1.14, written by Peter Selinger 2001-2017
</metadata>
<g transform="translate(0.000000,1360.000000) scale(0.100000,-0.100000)"
fill="#000000" stroke="none">
<path d="M973 11460 c-29 -10 -53 -16 -53 -13 0 5 -76 -53 -100 -77 -25 -25
-54 -72 -76 -125 -32 -73 -27 -198 11 -277 15 -32 32 -58 38 -58 6 0 8 -3 5
-6 -8 -7 47 -60 95 -90 31 -21 135 -55 155 -53 4 1 9 0 12 -1 14 -5 62 -5 66
1 2 4 19 4 36 0 18 -4 44 -5 58 -4 25 4 46 4 108 0 19 -1 36 1 38 4 2 4 19 4
36 0 18 -4 44 -5 58 -4 31 4 27 4 125 3 44 -1 85 0 90 1 6 1 14 0 20 -1 12 -2
127 -2 140 0 6 2 15 1 20 0 6 -1 33 -1 60 -1 54 1 81 1 133 -2 19 -1 36 1 38
4 2 4 19 4 36 0 18 -4 44 -5 58 -4 25 4 46 4 108 0 19 -1 36 1 38 4 2 4 19 4
36 0 18 -4 44 -5 58 -4 14 2 34 3 45 3 11 -1 25 -1 30 -2 19 -1 119 13 127 18
4 3 18 7 30 9 35 7 110 63 150 113 91 112 101 291 22 412 -52 79 -104 121
-188 150 -56 19 -87 20 -834 19 -738 0 -780 -1 -829 -19z"/>
<path d="M6838 10765 c-2 -3 -87 -7 -189 -10 -101 -2 -195 -7 -209 -9 -36 -6
-157 -18 -212 -21 -25 -2 -50 -5 -55 -8 -4 -3 -28 -8 -53 -11 -25 -4 -52 -8
-60 -10 -8 -1 -37 -7 -65 -11 -27 -5 -52 -10 -55 -10 -35 -8 -128 -28 -140
-30 -8 -2 -15 -4 -15 -5 0 -1 -7 -3 -15 -5 -50 -11 -72 -17 -135 -35 -38 -11
-80 -23 -92 -25 -98 -22 -481 -173 -625 -246 -72 -37 -138 -61 -138 -49 0 5
-12 5 -27 1 -16 -4 -40 -5 -54 -1 -15 4 -33 4 -40 0 -7 -5 -20 -5 -28 -1 -9 5
-25 5 -36 1 -11 -4 -34 -4 -51 0 -18 4 -37 4 -44 0 -6 -4 -28 -4 -49 0 -21 4
-48 3 -60 -2 -12 -4 -20 -4 -17 0 2 4 -15 6 -37 4 -74 -4 -147 -3 -157 3 -5 3
-11 1 -15 -5 -4 -6 -12 -7 -22 -1 -9 5 -29 5 -44 1 -15 -5 -30 -6 -33 -3 -8 8
-154 6 -167 -3 -7 -4 -10 -3 -6 2 3 5 -14 8 -36 6 -74 -4 -147 -3 -157 3 -5 3
-11 1 -15 -5 -4 -6 -12 -7 -22 -1 -9 5 -29 5 -44 1 -15 -5 -30 -6 -33 -3 -8 8
-154 6 -167 -3 -7 -4 -10 -3 -6 2 3 5 -14 8 -36 6 -53 -3 -133 -2 -173 1 -18
2 -40 0 -50 -3 -10 -4 -33 -4 -50 0 -18 4 -38 4 -45 -1 -7 -4 -20 -4 -28 0 -9
5 -25 5 -36 1 -11 -4 -34 -4 -51 0 -18 4 -38 4 -45 -1 -7 -4 -20 -4 -28 0 -9
5 -25 5 -36 1 -11 -4 -34 -4 -51 0 -18 4 -38 4 -45 -1 -7 -4 -20 -4 -28 0 -9
5 -25 5 -36 1 -11 -4 -34 -4 -51 0 -18 4 -38 4 -45 -1 -7 -4 -20 -4 -28 0 -9
5 -25 5 -36 1 -11 -4 -34 -4 -51 0 -18 4 -38 4 -45 -1 -7 -4 -20 -4 -28 0 -9
5 -25 5 -36 1 -11 -4 -34 -4 -51 0 -18 4 -38 4 -45 -1 -7 -4 -20 -4 -28 0 -9
5 -25 5 -36 1 -11 -4 -34 -4 -51 0 -18 4 -38 4 -45 -1 -7 -4 -20 -4 -28 0 -9
5 -25 5 -36 1 -11 -4 -34 -4 -51 0 -18 4 -37 4 -44 0 -6 -4 -28 -4 -49 0 -21
4 -48 3 -60 -2 -12 -4 -20 -4 -17 0 2 4 -15 6 -37 4 -74 -4 -147 -3 -157 3 -5
3 -11 1 -15 -5 -4 -6 -12 -7 -22 -1 -9 5 -29 5 -44 1 -15 -5 -30 -6 -33 -3 -8
8 -154 6 -167 -3 -7 -4 -10 -3 -6 2 3 5 -14 8 -36 6 -74 -4 -147 -3 -157 3 -5
3 -11 1 -15 -5 -4 -6 -12 -7 -22 -1 -9 5 -29 5 -44 1 -15 -5 -30 -6 -33 -3 -8
8 -154 6 -167 -3 -7 -4 -10 -3 -6 2 3 5 -14 8 -36 6 -35 -2 -87 -2 -162 0 -35
0 -156 -15 -175 -22 -3 -1 -9 -2 -14 -1 -4 1 -14 -4 -22 -10 -8 -6 -14 -8 -14
-5 0 4 -37 -12 -82 -36 -118 -61 -224 -169 -277 -281 -77 -160 -71 167 -68
-3542 1 -1831 6 -3343 11 -3360 4 -16 9 -37 11 -45 2 -8 4 -16 5 -17 2 -2 3
-6 5 -10 22 -82 99 -197 177 -268 48 -43 132 -99 163 -108 11 -3 40 -13 65
-22 67 -25 126 -35 208 -35 26 0 61 0 77 -1 17 -1 36 -1 43 0 16 1 50 1 112 0
19 0 41 0 48 1 6 0 22 0 35 0 12 0 33 1 47 1 14 0 32 0 40 0 86 -3 161 -1 171
5 7 4 10 3 6 -2 -3 -5 14 -8 36 -7 82 5 147 4 156 -1 5 -4 12 -2 16 4 4 6 12
7 22 1 9 -5 29 -5 44 -1 15 5 30 6 33 3 7 -7 115 -7 122 0 3 2 20 1 38 -3 19
-4 40 -4 47 1 7 4 20 4 28 0 9 -5 25 -5 36 -1 11 4 34 4 51 0 18 -4 37 -4 44
0 6 4 28 4 49 0 21 -4 48 -3 60 2 12 4 20 4 17 0 -2 -4 15 -6 37 -5 41 3 94 3
209 2 31 -1 62 2 69 7 7 4 10 3 6 -2 -3 -5 14 -8 36 -7 82 5 147 4 156 -1 5
-4 12 -2 16 4 4 6 12 7 22 1 9 -5 29 -5 44 -1 15 5 30 6 33 3 8 -8 154 -6 167
3 7 4 10 3 6 -2 -3 -5 14 -8 36 -7 82 5 147 4 156 -1 5 -4 12 -2 16 4 4 6 12
7 22 1 9 -5 28 -5 43 -1 15 4 33 4 40 0 7 -4 25 -4 40 0 15 4 33 4 40 0 7 -4
25 -4 41 0 15 5 30 6 33 3 8 -8 154 -6 167 3 7 4 10 3 6 -2 -3 -5 14 -8 36 -7
82 5 147 4 156 -1 5 -4 12 -2 16 4 4 6 12 7 22 1 9 -5 29 -5 44 -1 15 5 30 6
33 3 8 -8 154 -6 167 3 7 4 10 3 6 -2 -3 -5 14 -8 36 -7 41 3 94 3 209 2 31
-1 62 2 69 7 7 4 10 3 6 -2 -3 -5 14 -8 36 -7 23 2 66 3 95 2 28 0 69 0 90 0
20 1 53 1 72 0 19 0 41 0 48 0 17 1 55 1 112 0 19 0 41 0 48 1 14 1 42 1 75
-1 12 0 45 0 72 2 57 2 67 -1 180 -51 28 -13 77 -33 110 -45 33 -13 74 -28 90
-35 17 -6 31 -12 32 -12 1 0 46 -16 100 -35 54 -19 105 -36 114 -38 8 -2 38
-10 65 -18 27 -8 54 -16 59 -17 6 -1 15 -4 20 -6 31 -9 268 -62 315 -70 14 -2
37 -7 53 -9 69 -12 84 -15 117 -20 19 -2 58 -7 85 -10 28 -2 66 -7 85 -10 177
-26 841 -26 923 0 7 2 37 6 67 9 99 10 185 22 185 26 0 1 16 3 35 6 120 15
417 90 595 149 156 52 311 110 345 129 14 8 27 14 30 14 3 -1 27 9 53 21 34
16 67 22 110 22 34 -1 78 -1 97 0 38 1 36 1 93 -3 20 -2 37 0 37 4 0 3 12 3
28 -1 15 -4 43 -4 62 -1 19 3 52 3 73 -1 20 -3 40 -2 43 2 3 6 12 5 21 0 9 -5
29 -5 44 -1 15 5 30 6 33 3 7 -7 115 -7 122 0 3 2 20 1 38 -3 19 -4 40 -4 47
1 7 4 20 4 28 0 9 -5 25 -5 36 -1 11 4 34 4 51 0 18 -4 37 -4 44 0 6 4 28 4
49 0 21 -4 48 -3 60 2 12 4 20 4 17 0 -2 -4 15 -6 37 -5 41 3 94 3 209 2 31
-1 62 2 69 7 7 4 10 3 6 -2 -3 -5 14 -8 36 -7 41 3 94 3 209 2 31 -1 62 2 69
7 7 4 10 3 6 -2 -3 -5 14 -8 36 -7 41 3 94 3 209 2 31 -1 62 2 69 7 7 4 10 3
6 -2 -3 -5 14 -8 36 -7 23 2 66 3 95 2 28 0 69 0 90 0 20 1 53 1 72 0 19 0 41
0 48 0 17 1 55 1 112 0 19 0 41 0 48 1 6 0 22 0 35 0 12 0 33 1 47 1 14 0 32
0 40 0 86 -3 161 -1 171 5 7 4 10 3 6 -2 -3 -5 14 -8 36 -7 82 5 147 4 156 -1
5 -4 12 -2 16 4 4 6 12 7 22 1 9 -5 29 -5 44 -1 15 5 30 6 33 3 7 -7 115 -7
122 0 3 2 20 1 38 -3 19 -4 40 -4 47 1 7 4 20 4 28 0 9 -5 25 -5 36 -1 11 4
34 4 51 0 18 -4 37 -4 44 0 6 4 28 4 49 0 21 -4 48 -3 60 2 12 4 20 4 17 0 -2
-4 15 -6 37 -5 41 3 94 3 209 2 31 -1 62 2 69 7 7 4 10 3 6 -2 -3 -5 14 -8 36
-7 82 5 147 4 156 -1 5 -4 12 -2 16 4 4 6 12 7 22 1 9 -5 28 -5 43 -1 15 4 33
4 40 0 7 -5 18 -7 24 -5 6 2 45 6 86 9 45 3 106 15 150 31 41 14 80 27 85 28
6 1 12 4 15 7 3 3 25 18 49 34 81 52 211 197 211 234 0 7 4 12 9 12 7 0 19 32
59 155 4 11 8 1521 9 3355 2 2950 1 3342 -12 3395 -20 78 -19 74 -38 119 -9
21 -17 40 -17 42 0 2 -19 31 -42 65 -41 60 -55 74 -128 139 -38 34 -209 122
-221 114 -4 -2 -10 0 -14 6 -4 6 -11 8 -16 5 -5 -4 -14 -3 -20 1 -17 10 -105
16 -207 14 -29 0 -57 2 -62 5 -5 3 -11 1 -15 -5 -4 -6 -12 -7 -22 -1 -9 5 -29
5 -44 1 -15 -5 -30 -6 -33 -3 -8 8 -154 6 -167 -3 -7 -4 -10 -3 -6 2 3 5 -14
8 -36 6 -74 -4 -147 -3 -157 3 -5 3 -11 1 -15 -5 -4 -6 -12 -7 -22 -1 -9 5
-28 5 -43 1 -15 -4 -33 -4 -40 0 -7 4 -25 4 -40 0 -15 -4 -33 -4 -40 0 -7 4
-25 4 -41 0 -15 -5 -30 -6 -33 -3 -8 8 -154 6 -167 -3 -7 -4 -10 -3 -6 2 3 5
-14 8 -36 6 -74 -4 -147 -3 -157 3 -5 3 -11 1 -15 -5 -4 -6 -12 -7 -22 -1 -9
5 -29 5 -44 1 -15 -5 -30 -6 -33 -3 -7 7 -115 7 -122 0 -3 -2 -20 -1 -38 3
-19 4 -40 4 -47 -1 -7 -4 -20 -4 -28 0 -9 5 -25 5 -36 1 -11 -4 -34 -4 -51 0
-18 4 -38 4 -45 -1 -7 -4 -20 -4 -28 0 -9 5 -25 5 -36 1 -11 -4 -34 -4 -51 0
-18 4 -38 4 -45 -1 -7 -4 -20 -4 -28 0 -9 5 -25 5 -36 1 -11 -4 -34 -4 -51 0
-18 4 -37 4 -44 0 -6 -4 -28 -4 -49 0 -21 4 -48 3 -60 -2 -12 -4 -20 -4 -17 0
2 4 -15 6 -37 4 -74 -4 -147 -3 -157 3 -5 3 -11 1 -15 -5 -4 -6 -12 -7 -22 -1
-9 5 -29 5 -44 1 -15 -5 -30 -6 -33 -3 -8 8 -154 6 -167 -3 -7 -4 -10 -3 -6 2
3 5 -14 8 -36 6 -74 -4 -147 -3 -157 3 -5 3 -11 1 -15 -5 -4 -6 -12 -7 -22 -1
-9 5 -29 5 -44 1 -15 -5 -30 -6 -33 -3 -8 8 -154 6 -167 -3 -7 -4 -10 -3 -6 2
3 5 -14 8 -36 6 -23 -1 -67 -2 -97 -1 -30 0 -71 0 -90 0 -19 -1 -51 -1 -70 0
-19 0 -41 0 -47 0 -18 -1 -56 -1 -113 0 -19 0 -41 0 -47 0 -18 -1 -56 -1 -113
0 -19 0 -41 0 -47 0 -18 -1 -56 -1 -113 0 -19 0 -41 0 -47 -1 -7 0 -22 0 -33
0 -39 0 -75 0 -110 1 -19 0 -43 1 -54 0 -10 0 -39 11 -65 24 -25 13 -80 39
-121 58 -87 40 -178 78 -275 118 -34 14 -259 90 -276 94 -9 2 -47 12 -85 24
-38 11 -80 22 -94 25 -14 2 -61 14 -105 25 -77 19 -98 23 -175 36 -19 3 -57
10 -85 15 -27 6 -68 12 -90 15 -22 3 -49 7 -60 9 -11 2 -56 7 -100 11 -44 4
-96 9 -115 11 -19 2 -92 6 -162 8 -71 3 -132 7 -137 10 -4 3 -10 3 -13 1z
m267 -700 c50 -4 110 -9 135 -10 25 -2 45 -5 45 -6 0 -1 11 -2 25 -3 14 -1 41
-5 60 -9 19 -4 52 -9 74 -13 21 -3 48 -8 60 -10 11 -3 30 -7 41 -9 11 -2 43
-8 70 -14 28 -6 61 -14 75 -16 35 -8 115 -31 250 -73 63 -20 118 -35 123 -34
4 1 7 -3 7 -8 0 -5 8 -10 18 -10 10 0 22 -3 26 -7 3 -4 13 -8 21 -9 24 -3 296
-126 369 -166 38 -21 73 -38 77 -38 5 0 9 -5 9 -12 0 -6 3 -9 6 -6 9 9 274
-154 282 -174 2 -4 9 -8 15 -8 9 0 174 -120 213 -155 7 -5 31 -26 55 -45 128
-103 393 -370 480 -485 13 -16 26 -32 29 -35 3 -3 18 -23 35 -45 16 -22 37
-49 47 -59 10 -11 18 -23 18 -26 0 -4 9 -18 20 -31 12 -12 31 -39 42 -59 12
-19 25 -37 28 -40 17 -14 158 -259 218 -378 118 -235 244 -571 276 -732 3 -14
12 -54 21 -90 9 -36 18 -74 20 -85 1 -11 6 -36 9 -55 20 -105 28 -159 32 -195
2 -22 6 -56 9 -75 19 -145 25 -493 11 -700 -5 -63 -10 -117 -11 -120 -2 -3 -6
-30 -10 -60 -7 -65 -17 -129 -30 -190 -3 -14 -8 -41 -11 -60 -3 -19 -10 -53
-16 -75 -6 -22 -12 -44 -13 -50 -4 -33 -20 -95 -32 -122 -7 -18 -11 -33 -9
-33 7 0 -89 -278 -130 -379 -50 -121 -154 -335 -168 -343 -6 -4 -7 -8 -3 -8 4
0 -4 -17 -18 -37 -14 -21 -25 -43 -25 -50 0 -7 -4 -13 -10 -13 -5 0 -10 -6
-10 -14 0 -7 -7 -19 -15 -26 -9 -7 -13 -15 -11 -17 3 -3 0 -10 -5 -17 -5 -6
-46 -65 -90 -131 -45 -66 -85 -121 -90 -123 -5 -2 -9 -10 -9 -17 0 -7 -3 -15
-8 -17 -4 -1 -23 -23 -42 -48 -127 -165 -374 -420 -525 -543 -97 -79 -165
-131 -255 -193 -58 -41 -110 -78 -117 -84 -7 -5 -15 -10 -17 -10 -3 0 -30 -15
-59 -34 -100 -64 -476 -256 -502 -256 -2 0 -14 -4 -27 -9 -13 -5 -27 -10 -33
-11 -5 -1 -26 -10 -45 -20 -19 -10 -51 -21 -70 -25 -19 -4 -41 -11 -50 -16
-18 -10 -127 -44 -190 -59 -25 -6 -52 -14 -60 -17 -20 -8 -18 -8 -70 -18 -25
-5 -47 -9 -50 -10 -39 -9 -70 -15 -92 -19 -15 -3 -31 -7 -35 -9 -5 -3 -33 -8
-64 -11 -31 -4 -67 -9 -80 -11 -48 -10 -182 -23 -309 -31 -73 -4 -365 -8 -365
-4 0 0 -29 3 -65 5 -109 7 -204 14 -230 19 -14 2 -46 7 -71 10 -58 8 -95 14
-139 23 -19 3 -42 7 -50 9 -8 2 -31 6 -50 10 -19 5 -39 8 -45 9 -5 1 -20 5
-33 9 -12 4 -32 9 -45 10 -30 4 -272 76 -322 96 -30 12 -59 23 -65 24 -7 2
-70 26 -95 37 -11 4 -63 27 -115 50 -130 56 -349 170 -378 196 -7 7 -24 16
-38 19 -13 3 -24 10 -24 14 0 4 -20 18 -45 31 -25 13 -45 27 -45 31 0 5 -5 8
-10 8 -6 0 -20 8 -31 18 -10 11 -31 25 -46 33 -15 8 -35 21 -44 29 -9 8 -29
24 -44 35 -196 138 -495 428 -660 639 -16 21 -35 44 -40 50 -6 6 -22 27 -35
46 -13 19 -27 37 -30 40 -3 3 -23 32 -45 65 -22 33 -46 66 -53 73 -6 7 -12 20
-12 28 0 8 -4 14 -8 14 -5 0 -15 12 -23 28 -7 15 -25 45 -40 67 -14 22 -41 69
-59 105 -19 36 -42 77 -52 91 -9 14 -15 29 -11 33 3 3 1 6 -5 6 -7 0 -12 3
-11 8 2 15 -14 52 -22 52 -5 0 -9 8 -9 18 0 10 -4 22 -8 27 -5 6 -18 33 -30
62 -34 82 -45 108 -47 113 -1 3 -7 19 -14 35 -22 53 -100 285 -95 285 2 0 -3
17 -10 38 -20 51 -49 164 -60 234 -3 20 -9 46 -14 59 -4 13 -7 34 -6 47 0 12
-1 22 -5 22 -3 0 -6 10 -7 23 0 12 -3 42 -7 67 -29 193 -37 310 -36 545 0 147
5 320 9 320 2 0 4 15 14 110 11 92 16 127 31 210 2 11 6 38 10 60 4 22 10 44
15 49 5 5 7 14 4 20 -2 6 12 70 31 141 20 72 37 137 40 145 2 8 4 15 5 15 1 0
3 8 5 18 2 10 7 26 11 35 4 9 8 23 10 30 1 8 6 21 10 30 4 9 8 22 10 27 10 43
156 385 174 410 4 6 25 44 46 85 21 41 53 98 71 127 18 29 33 57 33 63 0 5 3
10 8 10 4 0 18 20 32 45 14 25 29 45 34 45 5 0 7 3 3 6 -6 6 41 76 56 82 4 2
7 8 7 13 0 6 5 15 10 22 6 7 29 37 53 67 23 30 45 57 49 58 5 2 8 8 8 14 0 6
8 18 18 27 9 9 35 38 57 66 80 100 304 325 407 409 13 11 37 31 54 45 16 14
45 37 64 51 63 47 145 109 157 120 7 5 16 10 21 10 5 0 17 9 27 20 10 11 21
20 25 20 4 0 40 22 81 48 91 59 271 160 359 200 36 16 92 42 125 57 77 35 280
112 317 120 9 2 25 8 36 14 10 5 30 12 43 15 29 6 43 10 139 36 41 11 86 22
100 25 14 3 36 7 50 10 14 3 36 8 50 11 14 2 48 9 75 14 51 10 71 13 160 25
28 3 61 8 75 11 14 2 77 7 140 10 63 3 116 7 117 8 5 5 348 -2 428 -9z m-6060
-427 c47 3 69 3 113 1 9 0 26 0 37 0 11 1 27 1 35 0 8 -1 29 0 45 1 27 1 102
2 163 1 12 0 36 -1 52 -1 17 -1 62 0 101 1 38 0 73 -1 75 -4 3 -3 18 -2 33 3
15 4 35 4 44 -1 9 -5 18 -5 21 -1 3 5 25 6 48 2 24 -3 59 -3 78 1 19 4 41 4
50 0 8 -4 26 -6 40 -4 44 5 161 5 166 0 3 -3 18 -2 33 3 15 4 35 4 44 -1 9 -5
18 -5 21 -1 3 5 25 6 48 2 24 -3 59 -3 78 1 19 4 41 4 50 0 8 -4 26 -6 40 -4
14 2 48 3 75 3 70 1 156 1 183 1 12 0 36 -1 52 -1 17 -1 62 0 101 1 38 0 73
-1 75 -4 3 -3 18 -2 33 3 15 4 35 4 44 -1 9 -5 18 -5 21 -1 3 5 25 6 48 2 24
-3 59 -3 78 1 19 4 41 4 50 0 8 -4 26 -6 40 -4 44 5 161 5 166 0 3 -3 18 -2
33 3 15 4 35 4 44 -1 10 -6 18 -5 22 1 4 6 10 8 15 5 5 -3 33 -5 62 -5 29 0
90 1 136 1 46 1 85 -1 88 -4 3 -3 19 -1 35 3 16 5 29 5 29 2 0 -4 -44 -50 -97
-102 -197 -193 -396 -424 -520 -607 -31 -46 -60 -83 -65 -83 -4 0 -8 -5 -8
-10 0 -6 -16 -37 -37 -68 -48 -75 -143 -233 -143 -239 0 -2 -18 -35 -40 -74
-22 -39 -40 -77 -40 -84 0 -7 -5 -15 -11 -17 -5 -2 -12 -10 -14 -18 -8 -38
-18 -60 -26 -60 -5 0 -9 -5 -9 -11 0 -5 -9 -29 -19 -53 -11 -23 -21 -48 -23
-56 -2 -8 -6 -17 -9 -20 -3 -3 -19 -39 -34 -80 -16 -41 -33 -80 -38 -87 -5 -7
-6 -16 -3 -22 3 -5 2 -11 -4 -13 -6 -2 -12 -12 -14 -23 -2 -11 -16 -54 -30
-95 -25 -71 -102 -337 -112 -389 -3 -12 -12 -53 -20 -90 -9 -36 -18 -82 -20
-101 -3 -19 -6 -42 -9 -50 -2 -8 -7 -37 -11 -65 -3 -27 -7 -57 -9 -65 -11 -63
-18 -111 -21 -145 -1 -22 -6 -78 -9 -125 -4 -47 -7 -124 -8 -172 -1 -47 -5
-84 -9 -81 -5 2 -4 -6 1 -19 11 -29 11 -37 0 -66 -5 -13 -6 -21 -1 -19 4 3 7
-15 7 -39 0 -24 -4 -44 -8 -44 -5 0 -5 -5 -1 -12 4 -7 9 -51 10 -98 3 -89 12
-225 14 -225 1 0 3 -18 5 -40 2 -22 6 -62 10 -90 3 -27 8 -64 10 -82 2 -18 6
-40 9 -50 3 -10 8 -36 11 -58 2 -22 7 -50 10 -62 11 -50 15 -69 19 -88 6 -29
20 -99 22 -107 1 -5 3 -10 4 -13 3 -6 4 -9 14 -55 4 -19 19 -73 33 -120 14
-47 25 -86 24 -87 0 -2 7 -22 15 -45 9 -24 17 -50 19 -58 5 -18 43 -126 55
-155 4 -11 17 -41 29 -67 12 -26 21 -52 21 -58 0 -6 4 -18 9 -28 5 -9 50 -100
99 -202 113 -234 300 -550 324 -550 5 0 7 -4 4 -8 -3 -5 15 -34 40 -65 24 -31
44 -61 44 -66 0 -5 4 -11 8 -13 4 -1 29 -30 54 -63 26 -33 57 -72 70 -86 13
-15 41 -48 63 -75 98 -119 297 -319 429 -432 l39 -34 -34 2 c-19 1 -38 1 -44
0 -5 -1 -14 -1 -20 0 -9 2 -59 1 -105 -1 -8 0 -44 0 -80 0 -36 1 -72 1 -80 1
-8 -1 -55 0 -103 1 -48 1 -91 -1 -94 -4 -3 -3 -15 -2 -27 2 -11 5 -30 5 -41 1
-11 -4 -33 -4 -50 -1 -16 4 -41 5 -55 4 -34 -5 -30 -5 -170 -3 -69 0 -129 0
-135 -1 -5 -1 -14 0 -20 1 -9 2 -59 1 -105 -1 -8 0 -44 0 -80 0 -36 1 -72 1
-80 1 -8 -1 -55 0 -103 1 -48 1 -91 -1 -94 -4 -3 -3 -15 -2 -27 2 -11 5 -30 5
-41 1 -11 -4 -33 -4 -50 -1 -16 4 -41 5 -55 4 -34 -5 -30 -5 -170 -3 -69 0
-129 0 -135 -1 -5 -1 -14 0 -20 1 -9 2 -59 1 -105 -1 -8 0 -44 0 -80 0 -36 1
-72 1 -80 1 -8 -1 -55 0 -103 1 -48 1 -91 -1 -94 -4 -3 -3 -15 -2 -27 2 -11 5
-30 5 -41 1 -11 -4 -33 -4 -50 -1 -16 4 -41 5 -55 4 -34 -5 -30 -5 -170 -3
-69 0 -129 0 -135 -1 -5 -1 -14 0 -20 1 -5 1 -37 3 -70 5 -124 5 -220 69 -276
183 l-24 47 -2 450 c-1 248 -3 461 -3 475 -1 14 -1 72 -1 130 0 58 0 112 0
120 0 8 0 62 0 120 0 58 0 112 0 120 0 42 0 240 1 272 4 180 4 1168 0 1168 -3
0 -3 26 0 58 3 31 3 88 0 125 -3 38 -4 70 -1 72 2 3 3 53 2 112 -2 59 -2 115
-2 123 0 8 0 62 0 120 0 58 0 110 0 115 0 18 0 1180 0 1195 0 8 0 62 0 120 0
58 0 112 0 120 0 8 0 62 0 120 0 58 0 112 0 120 0 8 0 62 0 120 0 58 0 112 0
120 0 8 0 119 1 245 2 194 5 239 21 290 35 113 144 200 263 211 21 2 41 6 44
8 3 3 10 2 16 -2 6 -4 34 -6 61 -4z m8861 -1 c3 -3 18 -2 33 3 16 4 34 4 41 0
7 -4 25 -4 40 0 15 4 34 4 43 -1 9 -5 18 -5 21 -1 3 5 25 6 48 2 24 -3 59 -3
78 1 19 4 41 4 50 0 8 -4 26 -6 40 -4 44 5 161 5 166 0 3 -3 18 -2 33 3 15 4
35 4 44 -1 9 -5 18 -5 21 -1 3 5 25 6 48 2 24 -3 59 -3 78 1 19 4 41 4 50 0 8
-4 26 -6 40 -4 44 5 161 5 166 0 3 -3 18 -2 33 3 15 4 35 4 44 -1 9 -5 18 -5
21 -1 3 5 25 6 48 2 24 -3 59 -3 78 1 19 4 41 4 50 0 8 -4 26 -6 40 -4 21 2
132 4 173 2 6 -1 23 0 37 1 14 1 34 0 45 -3 11 -2 34 -1 52 4 18 4 35 3 38 -2
3 -4 16 -5 28 0 12 5 31 5 42 1 11 -4 34 -4 52 1 18 4 35 3 38 -2 3 -4 16 -5
28 0 12 5 31 5 42 1 11 -4 34 -4 52 1 18 4 35 3 38 -2 3 -4 16 -5 28 0 12 5
31 5 42 1 11 -4 34 -4 52 1 18 4 35 3 38 -2 3 -4 16 -5 28 0 12 5 31 5 42 1
11 -4 33 -4 50 0 17 4 41 3 53 -1 14 -5 22 -4 22 2 0 6 5 7 12 3 7 -5 28 -7
48 -6 19 2 46 3 60 2 42 0 134 0 145 1 30 3 116 -16 155 -34 24 -12 63 -40 86
-63 78 -80 99 -158 93 -350 -1 -29 1 -57 5 -63 4 -6 2 -11 -4 -11 -6 0 -8 -5
-5 -10 4 -6 6 -32 6 -58 -1 -98 -1 -149 -1 -217 0 -38 -1 -93 -1 -121 -1 -29
1 -57 5 -63 4 -6 2 -11 -4 -11 -6 0 -8 -5 -5 -10 6 -9 8 -67 4 -120 0 -8 0
-26 0 -40 1 -14 1 -48 0 -76 -1 -29 1 -57 5 -63 4 -6 2 -11 -4 -11 -6 0 -8 -5
-5 -10 4 -6 6 -32 6 -58 -1 -98 -1 -149 -1 -217 0 -38 -1 -93 -1 -121 -1 -29
1 -57 5 -63 4 -6 2 -11 -4 -11 -6 0 -8 -5 -5 -10 4 -6 6 -32 6 -58 -1 -98 -1
-149 -1 -217 0 -38 -1 -93 -1 -121 -1 -29 1 -57 5 -63 4 -6 2 -11 -4 -11 -6 0
-8 -5 -5 -10 4 -6 6 -32 6 -58 -1 -98 -1 -149 -1 -217 0 -38 -1 -93 -1 -121
-1 -29 1 -57 5 -63 4 -6 2 -11 -4 -11 -6 0 -8 -5 -5 -10 4 -6 6 -32 6 -58 -1
-98 -1 -149 -1 -217 0 -38 -1 -93 -1 -121 -1 -29 1 -57 5 -63 4 -6 2 -11 -4
-11 -6 0 -8 -5 -5 -10 4 -6 6 -32 6 -58 -1 -98 -1 -149 -1 -217 0 -38 -1 -93
-1 -121 -1 -29 1 -57 5 -63 4 -6 2 -11 -4 -11 -6 0 -8 -5 -5 -10 4 -6 6 -32 6
-58 -1 -98 -1 -149 -1 -217 0 -38 -1 -93 -1 -121 -1 -29 1 -57 5 -63 4 -6 2
-11 -4 -11 -6 0 -8 -5 -5 -10 4 -6 6 -32 6 -58 -1 -98 -1 -149 -1 -217 0 -38
-1 -93 -1 -121 -1 -29 1 -57 5 -63 4 -6 2 -11 -4 -11 -6 0 -8 -5 -5 -10 4 -6
6 -32 6 -58 -1 -98 -1 -149 -1 -217 0 -38 -1 -93 -1 -121 -1 -29 1 -57 5 -63
4 -6 2 -11 -4 -11 -6 0 -8 -5 -5 -10 4 -6 6 -32 6 -58 -1 -98 -1 -149 -1 -217
0 -38 -1 -93 -1 -121 -1 -29 1 -57 5 -63 4 -6 2 -11 -4 -11 -6 0 -8 -5 -5 -10
4 -6 6 -32 6 -58 -1 -98 -1 -149 -1 -217 0 -38 -1 -92 -1 -120 -1 -27 0 -54 1
-60 1 -5 2 -12 1 -15 -1 -3 -3 -32 -5 -65 -6 -95 -60 -188 -141 -242 -40 -27
-121 -52 -170 -52 -22 -1 -47 -1 -55 -2 -8 0 -71 0 -140 1 -69 0 -129 0 -135
-1 -5 -1 -14 0 -20 1 -9 2 -59 1 -105 -1 -8 0 -44 0 -80 0 -36 1 -72 1 -80 1
-8 -1 -55 0 -103 1 -48 1 -91 -1 -94 -4 -3 -3 -15 -2 -27 2 -11 5 -30 5 -41 1
-11 -4 -33 -4 -50 -1 -16 4 -41 5 -55 4 -34 -5 -30 -5 -170 -3 -69 0 -129 0
-135 -1 -5 -1 -14 0 -20 1 -9 2 -59 1 -105 -1 -8 0 -44 0 -80 0 -36 1 -72 1
-80 1 -8 -1 -55 0 -103 1 -48 1 -91 -1 -94 -4 -3 -3 -15 -2 -27 2 -11 5 -30 5
-41 1 -11 -4 -33 -4 -50 -1 -16 4 -41 5 -55 4 -34 -5 -30 -5 -170 -3 -69 0
-129 0 -135 -1 -5 -1 -14 0 -20 1 -23 4 -136 2 -141 -3 -3 -3 -16 -2 -28 2
-11 5 -30 5 -41 1 -11 -4 -33 -4 -50 -1 -16 4 -41 5 -55 4 -35 -5 -31 -5 -172
-3 -70 1 -131 -1 -137 -4 -5 -4 -13 -2 -16 4 -5 8 -11 7 -21 -1 -8 -6 -14 -7
-14 -2 0 6 23 30 50 54 119 104 360 353 437 450 15 19 35 43 43 51 8 9 24 28
35 43 11 14 32 41 48 59 15 19 27 38 27 44 0 6 4 12 9 14 19 7 253 360 282
426 8 18 17 32 21 32 5 0 8 6 8 14 0 8 7 22 16 30 8 9 12 16 8 16 -3 0 -2 6 4
13 19 23 147 287 154 317 2 8 6 17 9 20 8 7 83 201 116 300 15 47 31 87 36 88
4 2 5 7 2 12 -3 4 4 34 15 66 11 32 22 67 25 79 2 11 10 40 16 65 6 25 13 54
15 65 2 11 17 81 34 155 16 74 32 157 35 184 4 27 8 57 10 67 8 39 17 107 20
154 2 28 4 50 5 50 2 0 9 113 14 218 2 54 6 101 9 104 3 3 1 16 -4 30 -6 17
-6 30 1 38 7 9 8 15 1 19 -7 4 -7 15 -1 31 6 15 6 27 0 30 -6 3 -6 15 0 29 5
13 6 27 3 30 -3 3 -7 43 -9 88 -9 232 -36 442 -86 683 -11 55 -22 107 -23 115
-2 8 -4 15 -5 15 -2 0 -7 22 -15 60 -3 17 -17 68 -31 114 -15 47 -27 89 -28
95 -1 6 -4 16 -7 21 -6 10 -22 62 -24 80 -1 6 -7 24 -14 40 -7 17 -19 45 -27
63 -8 18 -14 37 -14 43 0 6 -6 25 -14 42 -8 18 -27 61 -41 97 -15 36 -42 98
-61 138 -19 41 -34 78 -34 82 0 5 -3 10 -7 12 -5 2 -26 40 -48 86 -21 45 -43
82 -47 82 -4 0 -8 6 -8 14 0 7 -29 62 -65 121 -36 59 -65 111 -65 115 0 5 -4
10 -8 12 -4 2 -23 27 -42 56 -18 28 -37 52 -42 52 -4 0 -7 4 -5 8 3 10 -45 82
-55 82 -5 0 -8 4 -8 10 0 31 -277 356 -449 527 -72 71 -131 131 -131 134 0 6
190 2 196 -4z"/>
<path d="M4925 7474 c-11 -3 -26 -7 -33 -9 -7 -3 -14 -4 -17 -5 -3 0 -19 -7
-35 -15 -17 -9 -30 -13 -30 -10 0 4 -12 -3 -26 -14 -15 -12 -31 -21 -36 -21
-5 0 -15 -6 -23 -13 -7 -7 -26 -24 -42 -38 -15 -13 -42 -42 -58 -64 -16 -22
-34 -43 -40 -47 -5 -4 -7 -8 -3 -8 4 0 -1 -20 -12 -45 -25 -59 -32 -113 -34
-265 l-2 -125 -44 -1 c-108 -4 -100 -2 -91 -27 5 -13 5 -30 1 -37 -5 -8 -5
-21 0 -31 5 -9 6 -19 3 -23 -9 -8 -10 -66 -1 -66 4 0 3 -13 -2 -28 -4 -16 -4
-36 2 -45 6 -11 5 -17 -2 -17 -7 0 -8 -6 -1 -19 6 -10 8 -20 6 -22 -2 -3 25
-4 60 -3 52 2 65 -1 68 -14 3 -10 4 -180 3 -380 l-1 -362 40 -1 c22 -1 45 0
50 1 11 3 14 3 63 -3 17 -2 32 1 32 6 0 4 5 5 12 1 6 -4 50 -7 97 -7 l86 0 0
380 0 380 132 -1 133 -1 1 80 c1 112 -1 227 -6 234 -1 3 -60 5 -128 5 -85 -1
-127 2 -130 10 -6 19 -1 188 7 236 13 74 59 109 136 105 25 -1 62 -10 83 -18
43 -18 38 -36 38 133 0 193 3 177 -33 195 -33 16 -182 29 -223 19z"/>
<path d="M6035 7416 c-10 -22 -19 -44 -20 -48 -1 -5 -4 -11 -5 -15 -1 -5 -2
-11 -1 -15 0 -5 -4 -8 -11 -8 -6 0 -8 -3 -5 -6 3 -4 1 -16 -5 -28 -7 -11 -13
-23 -14 -26 -1 -8 -15 -41 -36 -90 -11 -25 -21 -49 -22 -55 -4 -13 -15 -40
-36 -90 -10 -22 -55 -132 -101 -245 -45 -113 -87 -208 -92 -211 -5 -3 -8 -10
-8 -15 1 -13 -20 -76 -35 -104 -8 -14 -27 -61 -44 -105 -28 -72 -43 -108 -70
-170 -27 -61 -62 -151 -66 -169 -2 -11 -9 -23 -16 -28 -7 -4 -10 -8 -6 -8 6 0
-10 -43 -47 -125 -23 -51 -40 -100 -37 -107 1 -5 -2 -8 -7 -8 -5 0 -12 -12
-16 -27 -3 -16 -20 -56 -36 -91 -16 -35 -29 -67 -29 -71 0 -3 -16 -44 -35 -90
-20 -46 -34 -89 -32 -95 2 -7 54 -11 144 -11 l141 0 43 105 c24 58 44 107 45
110 0 3 6 16 11 30 32 72 188 451 203 490 14 38 37 94 81 195 5 11 24 58 43
105 42 107 104 259 116 285 5 11 15 36 23 55 8 19 27 64 42 99 15 35 28 68 30
75 2 14 14 40 55 131 17 39 31 70 30 70 -5 0 80 208 90 220 5 6 9 13 10 17 1
4 4 17 7 27 3 11 4 23 3 27 -1 4 3 10 8 13 6 3 12 15 14 26 3 19 -3 20 -143
21 l-147 2 -17 -42z"/>
<path d="M7437 7304 c-3 -4 -99 -7 -212 -7 l-205 0 -38 -45 c-20 -25 -53 -64
-72 -86 -36 -42 -48 -56 -65 -78 -23 -29 -117 -144 -134 -163 -44 -51 -130
-165 -157 -210 -54 -90 -109 -217 -120 -280 -1 -5 -3 -12 -4 -15 -9 -24 -12
-60 -15 -149 -2 -111 16 -197 57 -270 12 -20 27 -46 33 -59 11 -20 93 -103
138 -139 64 -52 223 -112 317 -120 102 -8 185 -9 203 -1 9 5 17 5 17 0 0 -12
165 31 226 59 56 25 137 81 174 119 39 38 100 121 100 134 0 7 6 18 13 25 6 6
12 15 13 19 0 4 7 27 14 52 28 90 33 213 14 300 -22 100 -22 101 -35 116 -6 8
-9 14 -5 14 12 0 -66 115 -108 158 -64 67 -169 125 -271 149 -17 4 -122 5
-165 1 -8 -1 -30 -10 -48 -20 -18 -10 -37 -18 -43 -18 -9 0 3 15 93 111 20 21
34 39 32 39 -3 0 5 11 18 24 13 13 30 32 38 42 9 11 36 42 60 70 41 46 119
135 169 193 26 30 26 35 1 28 -10 -3 -20 -1 -22 5 -2 5 -7 6 -11 2z m-299
-788 c64 -12 141 -76 177 -146 24 -48 28 -148 7 -202 -24 -61 -107 -140 -162
-155 -80 -21 -230 4 -230 39 0 6 -3 9 -6 5 -8 -8 -73 69 -87 103 -40 97 -16
210 60 286 40 40 106 74 135 69 10 -2 18 0 18 4 0 9 31 8 88 -3z"/>
<path d="M8525 7300 c-11 -4 -25 -6 -30 -3 -6 2 -26 -23 -45 -54 -19 -32 -40
-64 -47 -71 -7 -7 -13 -19 -13 -26 0 -8 -7 -19 -15 -26 -9 -7 -13 -15 -11 -17
3 -3 -4 -14 -15 -26 -10 -11 -19 -27 -19 -34 0 -7 -4 -13 -10 -13 -5 0 -10 -5
-10 -11 0 -6 -18 -38 -39 -69 -22 -32 -37 -61 -34 -64 4 -3 1 -6 -5 -6 -7 0
-12 -5 -12 -11 0 -6 -10 -25 -22 -42 -24 -33 -40 -59 -58 -92 -6 -11 -19 -33
-30 -50 -11 -16 -23 -38 -26 -47 -4 -10 -10 -18 -15 -18 -5 0 -9 -4 -9 -9 0
-5 -37 -68 -81 -141 -94 -151 -109 -188 -99 -236 4 -19 5 -36 1 -38 -3 -2 -4
-37 -1 -78 l5 -73 372 0 c278 -1 376 -4 385 -13 9 -9 9 -12 -1 -12 -7 0 -9 -5
-5 -11 10 -16 10 -169 0 -169 -5 0 -4 -6 1 -12 5 -7 8 -32 7 -56 -1 -23 3 -45
8 -48 9 -6 111 -9 133 -4 6 1 15 1 20 0 13 -2 127 -3 140 0 6 1 26 1 45 0 l35
-1 -1 160 c-1 142 0 161 15 162 9 1 51 1 94 1 l77 0 1 37 c1 20 2 90 2 156 l1
120 -60 1 c-34 0 -68 4 -77 7 -10 4 -17 2 -17 -2 0 -5 -8 -7 -18 -4 -18 4 -19
25 -20 451 0 246 -1 457 -1 470 -1 21 -5 22 -63 19 -35 -2 -73 0 -84 4 -12 4
-24 5 -27 2 -8 -7 -296 -9 -300 -2 -1 4 -11 3 -22 -1z m119 -395 c1 -25 -3
-45 -8 -45 -5 0 -4 -6 1 -12 5 -7 8 -24 6 -38 -4 -30 -4 -32 0 -90 1 -25 -1
-51 -6 -57 -6 -8 -6 -13 0 -13 10 0 10 -66 1 -76 -4 -3 -5 -11 -2 -17 9 -26
11 -77 2 -77 -5 0 -6 -5 -2 -12 12 -19 11 -108 -1 -109 -64 -5 -345 -2 -345 5
0 12 54 110 63 114 4 2 7 10 7 18 0 8 5 14 10 14 6 0 10 5 10 11 0 6 36 71 80
146 44 74 80 139 80 144 0 5 5 9 10 9 6 0 10 5 10 11 0 15 72 130 78 124 3 -2
5 -25 6 -50z"/>
</g>
</svg>
