<?xml version="1.0" encoding="UTF-8"?>
<svg width="170px" height="117px" viewBox="0 0 170 117" version="1.1" xmlns="http://www.w3.org/2000/svg" xmlns:xlink="http://www.w3.org/1999/xlink">
    <title>F64 Nuevo</title>
    <g id="Page-1" stroke="none" stroke-width="1" fill="none" fill-rule="evenodd">
        <g id="Slide-4:3" transform="translate(-48.000000, -792.000000)" fill="#000000">
            <g id="F64-Nuevo" transform="translate(48.000000, 792.000000)">
                <g id="Lens" transform="translate(31.000000, 9.000000)">
                    <path d="M54,0 C83.8233765,0 108,24.1766235 108,54 C108,83.8233765 83.8233765,108 54,108 C24.1766235,108 0,83.8233765 0,54 C0,24.1766235 24.1766235,0 54,0 Z M54.3384401,8.53760446 C29.209484,8.53760446 8.83844011,28.9086483 8.83844011,54.0376045 C8.83844011,79.1665606 29.209484,99.5376045 54.3384401,99.5376045 C79.4673962,99.5376045 99.8384401,79.1665606 99.8384401,54.0376045 C99.8384401,28.9086483 79.4673962,8.53760446 54.3384401,8.53760446 Z" id="Combined-Shape"></path>
                    <path d="M30.4384847,53.5367242 L30.4384847,63.0112423 L25.7012256,63.0112423 L25.7012256,53.5367242 L24,53.5367242 L24,49.5846462 L25.7012256,49.5846462 L25.7012256,47.5693482 C25.7012256,46.4526407 25.8059154,45.5627777 26.0152981,44.8997326 C26.1897836,44.3413788 26.4689563,43.8222921 26.8528245,43.3424568 C27.2366927,42.8626216 27.6859863,42.4482246 28.2007187,42.0992535 C28.715451,41.7502824 29.2694344,41.4798338 29.8626852,41.2878997 C30.4559361,41.0959656 31.0404539,41 31.6162563,41 C32.017573,41 32.3883493,41.0436207 32.7285961,41.1308635 C33.0688429,41.2181063 33.4134467,41.3402443 33.7624178,41.4972813 L33.7624178,45.6325682 C33.4483438,45.4755312 33.1560849,45.3577553 32.8856323,45.2792368 C32.6151797,45.2007183 32.3316449,45.1614596 32.0350195,45.1614596 C31.8430854,45.1614596 31.6467921,45.1919941 31.4461337,45.2530641 C31.2454753,45.314134 31.0579062,45.4406341 30.8834206,45.6325682 C30.7089351,45.8245024 30.5911591,46.099313 30.5300891,46.4570084 C30.4690192,46.8147037 30.4384847,47.2988939 30.4384847,47.9095933 L30.4384847,49.5846462 L33.7624178,49.5846462 L33.7624178,53.5367242 L30.4384847,53.5367242 Z M44.6502618,41.2878997 L48.3929582,41.2878997 L37.609805,67.5391198 L33.8932813,67.5391198 L44.6502618,41.2878997 Z M62.6832535,43.2770251 L57.0822953,49.7155097 L57.1869861,49.7155097 C57.6755456,49.4188843 58.0768564,49.2400393 58.3909304,49.1789694 C58.7050044,49.1178994 58.9841771,49.0873649 59.2284568,49.0873649 C60.1881274,49.0873649 61.0692662,49.270572 61.8718997,49.6369916 C62.6745333,50.0034113 63.372465,50.5050497 63.9657159,51.141922 C64.5589668,51.7787943 65.0213465,52.5247088 65.3528691,53.379688 C65.6843916,54.2346672 65.8501504,55.1507026 65.8501504,56.1278217 C65.8501504,57.174735 65.6582192,58.1474774 65.274351,59.046078 C64.8904828,59.9446786 64.3364994,60.7298518 63.6123844,61.4016212 C62.8882694,62.0733905 62.0114926,62.6012014 60.9820279,62.9850696 C59.9525631,63.3689379 58.7922516,63.5608691 57.5010585,63.5608691 C56.1924169,63.5608691 55.0233812,63.3689379 53.9939164,62.9850696 C52.9644517,62.6012014 52.0876749,62.0777526 51.3635599,61.4147075 C50.6394448,60.7516624 50.0854615,59.9795754 49.7015933,59.0984234 C49.3177251,58.2172714 49.1257939,57.2794256 49.1257939,56.2848579 C49.1257939,55.1681504 49.3744321,53.9598561 49.8717159,52.6599387 C50.3689997,51.3600214 51.1323625,50.0819339 52.1618273,48.8256379 L56.7420501,43.2770251 L62.6832535,43.2770251 Z M54.2032981,56.2325125 C54.2032981,56.686175 54.2905395,57.1092961 54.4650251,57.5018886 C54.6395106,57.8944811 54.8750626,58.2390849 55.171688,58.5357103 C55.4683135,58.8323357 55.8129173,59.0678877 56.2055097,59.2423733 C56.5981022,59.4168588 57.0212234,59.5041003 57.4748858,59.5041003 C57.9285482,59.5041003 58.3516693,59.4168588 58.7442618,59.2423733 C59.1368543,59.0678877 59.4814581,58.8323357 59.7780836,58.5357103 C60.074709,58.2390849 60.310261,57.8944811 60.4847465,57.5018886 C60.6592321,57.1092961 60.7464735,56.686175 60.7464735,56.2325125 C60.7464735,55.7788501 60.6592321,55.355729 60.4847465,54.9631365 C60.310261,54.570544 60.074709,54.2259402 59.7780836,53.9293148 C59.4814581,53.6326893 59.1368543,53.3971374 58.7442618,53.2226518 C58.3516693,53.0481663 57.9285482,52.9609248 57.4748858,52.9609248 C57.0212234,52.9609248 56.5981022,53.0481663 56.2055097,53.2226518 C55.8129173,53.3971374 55.4683135,53.6326893 55.171688,53.9293148 C54.8750626,54.2259402 54.6395106,54.570544 54.4650251,54.9631365 C54.2905395,55.355729 54.2032981,55.7788501 54.2032981,56.2325125 Z M77.0258942,55.0285682 L77.0258942,47.2552758 L72.4980167,55.0285682 L77.0258942,55.0285682 Z M81.7893259,55.0285682 L84.1710418,55.0285682 L84.1710418,58.9544735 L81.7893259,58.9544735 L81.7893259,63.0112423 L77.0258942,63.0112423 L77.0258942,58.9544735 L67.4990306,58.9544735 L67.4990306,55.6567131 L75.0367688,43.2770251 L81.7893259,43.2770251 L81.7893259,55.0285682 Z" id="f/64"></path>
                </g>
                <path d="M48.7233377,22.9994159 L12,23 C9.790861,23 8,24.790861 8,27 L8,100 C8,102.209139 9.790861,104 12,104 L49.8563728,104.000373 C53.5892969,107.203042 57.7646168,109.904719 62.2780834,112.001156 L8,112 C3.581722,112 5.41083001e-16,108.418278 0,104 L0,23 C-5.41083001e-16,18.581722 3.581722,15 8,15 L60.2366261,15.0000835 C56.0496252,17.1645558 52.1820792,19.8607831 48.7233377,22.9994159 Z M162,15 C166.418278,15 170,18.581722 170,23 L170,104 C170,108.418278 166.418278,112 162,112 L107.721917,112.001156 C112.235383,109.904719 116.410703,107.203042 120.143627,104.000373 L157,104 C159.209139,104 161,102.209139 161,100 L161,27 C161,24.790861 159.209139,23 157,23 L121.276662,22.9994159 C117.817921,19.8607831 113.950375,17.1645558 109.763374,15.0000835 L162,15 Z" id="Body"></path>
                <rect id="Shutter" x="9" y="0" width="27" height="9" rx="4.5"></rect>
            </g>
        </g>
    </g>
</svg>